{"glyphs":{"0":{"ha":740,"x_min":0,"x_max":0,"o":"m 425 63 b 606 161 493 75 557 113 b 729 335 654 210 704 269 b 197 882 847 638 558 1065 b 46 700 108 836 86 786 b 60 215 -28 544 -42 363 b 425 63 154 79 260 32 z m 281 400 b 283 572 249 442 257 529 b 471 500 347 674 460 593 b 281 400 482 408 347 314 z "},"1":{"ha":481,"x_min":0,"x_max":0,"o":"m 190 772 b 17 82 171 710 11 122 b 43 44 18 65 29 53 b 286 -8 72 28 253 -17 b 331 69 322 0 326 39 b 469 781 360 308 400 550 b 503 914 478 808 510 888 b 483 943 500 925 492 936 b 297 1038 469 956 310 1039 b 250 1008 278 1035 264 1019 b 10 889 174 949 96 926 b -17 838 -12 879 -25 863 b 61 711 -6 808 26 713 b 190 772 79 711 167 761 z "},"2":{"ha":761,"x_min":0,"x_max":0,"o":"m 510 299 b 663 903 672 454 806 688 b 419 1079 606 988 525 1064 b 7 619 139 1119 -92 903 b 343 558 58 472 243 439 b 258 749 404 632 374 792 b 415 758 288 813 379 821 b 408 576 436 721 426 615 b 74 353 338 424 103 404 b 68 215 60 329 67 244 b 71 14 69 189 65 24 b 153 -7 85 -10 129 -8 b 657 14 314 7 497 51 b 735 13 685 7 708 -7 b 760 103 756 28 756 79 b 768 278 765 139 790 249 b 510 299 729 329 567 308 z "},"3":{"ha":713,"x_min":0,"x_max":0,"o":"m 544 497 b 689 624 606 518 661 564 b 39 942 922 1128 93 1050 b 63 876 31 926 56 890 b 138 728 78 849 117 735 b 413 742 164 718 371 836 b 393 657 425 715 411 678 b 143 603 311 565 150 692 b 150 401 140 569 129 422 b 376 344 179 372 351 414 b 322 268 389 311 356 271 b 211 303 286 265 240 282 b 142 349 189 318 171 346 b -21 185 107 351 -14 217 b 63 54 -32 133 29 83 b 126 18 82 38 104 28 b 544 497 588 -181 872 325 z "},"4":{"ha":721,"x_min":0,"x_max":0,"o":"m 414 497 b 267 492 386 494 286 475 b 371 947 247 578 404 883 b 303 979 360 969 325 975 b 142 967 271 985 167 986 b 21 257 82 919 -82 350 b 381 231 88 197 294 224 b 428 -12 381 178 379 17 b 688 8 456 -29 656 -10 b 718 44 701 17 713 29 b 701 199 731 81 707 160 b 690 892 668 415 667 675 b 700 1008 694 929 703 971 b 469 1032 696 1065 508 1039 b 419 807 404 1019 419 858 b 414 497 419 704 418 600 z "},"5":{"ha":751,"x_min":0,"x_max":0,"o":"m 292 253 b 299 372 300 290 314 335 b -15 228 250 489 11 419 b 563 26 -53 -54 389 -93 b 561 626 761 164 767 493 b 339 668 475 682 399 644 b 388 738 331 671 344 740 b 694 686 450 733 649 653 b 760 929 718 704 743 885 b 769 986 764 942 778 974 b 713 1000 761 999 726 999 b 292 1013 572 1008 432 990 b 211 1025 265 1017 239 1024 b 163 1011 193 1026 176 1022 b 128 947 143 996 135 971 b 53 544 119 918 53 549 b 101 496 57 515 71 499 b 385 417 206 486 317 529 b 292 253 429 343 390 232 z "},"6":{"ha":715,"x_min":0,"x_max":0,"o":"m 197 485 b 378 714 179 613 269 679 b 518 738 425 729 471 728 b 550 758 531 740 543 747 b 543 875 560 774 547 854 b 510 965 539 899 531 951 b 393 978 525 1000 406 981 b 110 836 292 957 185 908 b 104 92 -61 672 -42 267 b 435 0 188 -8 315 -12 b 708 472 688 26 797 242 b 519 611 679 549 597 597 b 197 485 394 632 272 588 z m 310 263 b 419 260 263 415 439 385 b 310 263 407 186 329 199 z "},"7":{"ha":663,"x_min":0,"x_max":0,"o":"m 375 793 b 361 758 372 781 367 769 b 167 326 293 617 222 474 b 79 60 150 281 81 94 b 97 21 79 44 85 29 b 199 0 111 11 176 6 b 347 -44 249 -12 297 -33 b 385 -35 361 -47 376 -47 b 425 238 385 -35 418 199 b 606 732 450 381 518 611 b 685 826 625 758 674 801 b 679 869 693 846 685 854 b 661 1026 663 917 668 976 b 628 1060 658 1043 649 1064 b 275 1018 513 1038 393 1021 b 36 1022 196 1017 115 1025 b -22 988 10 1021 -18 1018 b 33 794 -24 969 25 831 b 58 710 38 775 35 714 b 129 746 76 707 114 736 b 375 793 200 786 294 794 z "},"8":{"ha":706,"x_min":0,"x_max":0,"o":"m 533 564 b 458 1017 756 672 708 993 b 247 1001 389 1024 314 1021 b 90 911 189 985 132 954 b 156 575 1 819 46 632 b 389 -42 -124 450 -79 -50 b 533 564 786 -35 818 428 z m 267 686 b 415 772 214 757 363 803 b 267 686 504 719 299 643 z m 264 272 b 253 292 258 278 256 285 b 453 363 214 396 418 436 b 264 272 508 246 318 217 z "},"9":{"ha":739,"x_min":0,"x_max":0,"o":"m 522 483 b 461 340 522 426 500 381 b 146 269 376 253 254 274 b 110 253 133 269 118 263 b 97 122 96 233 97 149 b 115 28 97 99 97 44 b 325 6 99 -25 299 1 b 622 157 442 26 540 71 b 663 915 767 310 796 750 b 356 1035 585 1011 472 1029 b 111 971 271 1039 182 1021 b 21 511 -12 882 -56 640 b 104 432 40 478 72 453 b 385 399 185 381 294 371 b 522 483 438 414 483 444 z m 369 639 b 426 781 268 674 350 879 b 369 639 460 738 456 610 z "},"\n":{"ha":0,"x_min":0,"x_max":0,"o":""}," ":{"ha":347,"x_min":0,"x_max":0,"o":""},"!":{"ha":381,"x_min":0,"x_max":0,"o":"m 307 382 b 340 439 343 388 340 408 b 364 825 342 569 347 696 b 383 1004 368 856 389 986 b 364 1029 381 1015 375 1025 b 300 1032 346 1038 319 1032 b 131 1050 244 1032 186 1051 b 83 1040 118 1050 92 1050 b 39 415 46 999 8 464 b 307 382 65 374 260 375 z m 186 -7 b 313 63 236 -3 281 25 b 110 310 429 201 265 364 b 186 -7 -90 240 -6 -22 z "},"\"":{"ha":526,"x_min":0,"x_max":0,"o":"m 158 719 b 167 1036 222 778 296 1017 b 29 1029 132 1042 61 1047 b 60 722 -29 997 13 763 b 158 719 86 700 132 694 z m 447 719 b 456 1036 511 776 585 1017 b 318 1029 425 1040 344 1044 b 349 722 260 997 301 763 b 447 719 376 699 418 693 z "},"«":{"ha":526,"x_min":0,"x_max":0,"o":"m 158 719 b 167 1036 222 778 296 1017 b 29 1029 132 1042 61 1047 b 60 722 -29 997 13 763 b 158 719 86 700 132 694 z m 447 719 b 456 1036 511 776 585 1017 b 318 1029 425 1040 344 1044 b 349 722 260 997 301 763 b 447 719 376 699 418 693 z "},"»":{"ha":526,"x_min":0,"x_max":0,"o":"m 158 719 b 167 1036 222 778 296 1017 b 29 1029 132 1042 61 1047 b 60 722 -29 997 13 763 b 158 719 86 700 132 694 z m 447 719 b 456 1036 511 776 585 1017 b 318 1029 425 1040 344 1044 b 349 722 260 997 301 763 b 447 719 376 699 418 693 z "},"„":{"ha":526,"x_min":0,"x_max":0,"o":"m 158 719 b 167 1036 222 778 296 1017 b 29 1029 132 1042 61 1047 b 60 722 -29 997 13 763 b 158 719 86 700 132 694 z m 447 719 b 456 1036 511 776 585 1017 b 318 1029 425 1040 344 1044 b 349 722 260 997 301 763 b 447 719 376 699 418 693 z "},"‟":{"ha":526,"x_min":0,"x_max":0,"o":"m 158 719 b 167 1036 222 778 296 1017 b 29 1029 132 1042 61 1047 b 60 722 -29 997 13 763 b 158 719 86 700 132 694 z m 447 719 b 456 1036 511 776 585 1017 b 318 1029 425 1040 344 1044 b 349 722 260 997 301 763 b 447 719 376 699 418 693 z "},"#":{"ha":1083,"x_min":0,"x_max":0,"o":"m 821 207 b 1039 175 890 200 972 193 b 1081 199 1061 169 1074 175 b 1082 428 1083 210 1086 418 b 867 451 1067 465 901 454 b 886 549 872 483 879 517 b 1032 532 915 544 1010 529 b 1068 726 1083 538 1069 689 b 942 763 1065 781 978 761 b 1007 989 950 790 1011 978 b 933 1021 1001 1008 951 1017 b 731 1061 900 1029 758 1076 b 621 771 707 1047 631 810 b 511 778 585 774 547 775 b 540 911 518 806 546 889 b 344 961 531 957 383 958 b 242 943 317 963 246 986 b 218 810 238 899 228 854 b 28 603 -33 847 47 810 b 26 560 26 589 22 572 b 164 549 36 524 142 547 l 154 481 b 22 483 126 482 43 493 b 10 204 -22 461 -26 233 b 118 203 33 185 89 199 b 111 64 115 175 101 86 b 358 39 124 35 329 -7 b 393 222 371 58 388 189 l 515 224 b 503 57 513 201 497 68 b 554 29 510 46 542 33 b 821 207 803 -56 782 -18 z m 436 453 b 460 564 443 490 451 526 b 574 565 497 565 536 565 l 551 444 l 436 453 z "},"$":{"ha":603,"x_min":0,"x_max":0,"o":"m 363 35 b 519 499 535 99 679 361 b 367 631 488 525 383 604 b 364 681 357 644 354 665 b 588 708 408 744 558 690 b 618 950 601 717 622 939 b 340 1001 600 1004 389 1008 b 211 1099 326 1143 313 1104 b 143 1096 196 1097 156 1101 b 160 931 119 1086 157 961 b 119 457 6 818 -21 592 b 249 363 158 419 207 396 b 271 326 260 354 271 342 b 6 272 271 256 47 310 b -7 246 -3 265 -6 256 b -12 68 -17 189 -17 125 b -4 28 -11 56 -11 39 b 208 -1 17 -7 169 -4 b 200 -58 207 -12 197 -50 b 217 -72 203 -64 210 -72 b 375 -35 251 -72 385 -94 b 363 35 371 -11 365 11 z "},"%":{"ha":1336,"x_min":0,"x_max":0,"o":"m 578 -37 b 657 140 626 -29 646 97 b 918 804 717 365 799 604 b 986 913 940 840 969 874 b 861 1036 1006 961 894 1015 b 749 1063 835 1051 772 1094 b 356 67 749 1063 356 86 b 372 32 356 53 361 40 b 578 -37 397 15 550 -43 z m 349 422 b 260 1025 692 528 575 1067 b 121 968 210 1018 164 993 b 10 867 75 942 36 915 b 349 422 -90 681 67 335 z m 239 671 b 350 763 149 788 310 878 b 239 671 388 656 296 599 z m 1149 57 b 1272 124 1193 71 1238 92 b 1061 660 1450 285 1339 696 b 921 603 1011 653 964 628 b 811 501 875 576 836 550 b 1149 57 707 300 881 -29 z m 1040 306 b 1022 422 1024 328 1006 399 b 1150 397 1058 472 1132 450 b 1040 306 1189 285 1094 236 z "},"&":{"ha":840,"x_min":0,"x_max":0,"o":"m 590 58 b 861 124 743 -50 754 -8 b 850 150 874 139 865 144 b 690 224 793 168 742 193 b 740 539 726 308 744 447 b 658 553 739 574 679 554 b 499 549 633 551 488 597 b 479 389 510 501 496 433 b 385 499 446 424 413 460 b 629 747 469 576 567 647 b 28 838 857 1110 81 1226 b 115 550 15 742 43 618 b -8 288 44 482 -1 385 b 590 58 -32 -18 388 -124 z m 303 671 b 289 769 294 703 286 736 b 363 740 300 882 468 881 b 303 671 344 715 326 690 z m 263 343 b 367 246 293 307 328 274 b 263 343 264 192 224 239 z "},"'":{"ha":236,"x_min":0,"x_max":0,"o":"m 158 719 b 218 1008 213 769 268 947 b 74 1039 188 1046 117 1040 b 7 1003 44 1038 19 1032 b 60 722 -15 953 15 761 b 158 719 88 699 129 693 z "},"‚":{"ha":236,"x_min":0,"x_max":0,"o":"m 158 719 b 218 1008 213 769 268 947 b 74 1039 188 1046 117 1040 b 7 1003 44 1038 19 1032 b 60 722 -15 953 15 761 b 158 719 88 699 129 693 z "},"‛":{"ha":236,"x_min":0,"x_max":0,"o":"m 158 719 b 218 1008 213 769 268 947 b 74 1039 188 1046 117 1040 b 7 1003 44 1038 19 1032 b 60 722 -15 953 15 761 b 158 719 88 699 129 693 z "},"‹":{"ha":236,"x_min":0,"x_max":0,"o":"m 158 719 b 218 1008 213 769 268 947 b 74 1039 188 1046 117 1040 b 7 1003 44 1038 19 1032 b 60 722 -15 953 15 761 b 158 719 88 699 129 693 z "},"›":{"ha":236,"x_min":0,"x_max":0,"o":"m 158 719 b 218 1008 213 769 268 947 b 74 1039 188 1046 117 1040 b 7 1003 44 1038 19 1032 b 60 722 -15 953 15 761 b 158 719 88 699 129 693 z "},"(":{"ha":719,"x_min":0,"x_max":0,"o":"m 626 -96 b 694 233 728 -75 778 178 b 428 313 653 261 526 244 b 413 750 274 418 274 632 b 593 833 463 793 528 822 b 728 864 622 839 713 836 b 735 915 735 875 733 901 b 642 1174 740 992 744 1157 b 400 1154 568 1186 469 1181 b 6 643 189 1072 31 868 b 408 -83 -31 319 69 21 b 626 -96 478 -104 556 -110 z "},")":{"ha":718,"x_min":0,"x_max":0,"o":"m 279 -93 b 319 1154 861 36 875 940 b 76 1174 250 1181 149 1186 b 8 1122 51 1169 19 1144 b -7 863 -12 1081 -31 899 b 126 833 8 839 99 839 b 397 456 304 801 457 644 b 25 233 325 224 97 282 b 32 -56 -50 183 -7 8 b 279 -93 71 -119 217 -107 z "},"*":{"ha":421,"x_min":0,"x_max":0,"o":"m 296 664 b 375 642 315 651 353 617 b 410 711 386 654 414 694 b 296 783 404 736 319 769 b 424 863 315 793 417 847 b 367 942 429 874 376 940 b 282 894 342 946 300 910 b 281 982 282 922 285 954 b 136 992 275 1025 146 999 b 124 974 129 988 126 981 b 133 889 118 954 131 911 b 19 893 69 935 75 957 b -3 856 13 885 -4 867 b 108 782 0 839 90 793 b 11 715 86 772 11 742 b 68 643 11 697 47 642 b 151 692 88 644 132 679 b 146 601 151 661 146 632 b 288 574 146 550 258 561 b 296 664 314 585 299 643 z "},"+":{"ha":707,"x_min":0,"x_max":0,"o":"m 476 328 b 714 325 517 328 694 308 b 719 404 728 339 721 386 b 497 574 703 639 718 574 b 408 811 504 688 551 815 b 244 799 368 810 276 825 b 236 585 225 783 236 618 b 26 586 190 589 64 597 b 17 319 -37 567 -25 338 b 232 325 33 313 197 325 b 222 89 231 283 206 110 b 301 81 233 75 285 79 b 476 328 535 90 476 81 z "},",":{"ha":374,"x_min":0,"x_max":0,"o":"m 249 33 b 100 -124 254 -85 82 -37 b 176 -160 107 -157 147 -165 b 136 292 485 -106 403 343 b 4 90 42 274 -14 183 b 249 33 25 -15 185 -57 z "},"-":{"ha":607,"x_min":0,"x_max":0,"o":"m 600 329 b 581 597 614 353 599 581 b 340 599 567 611 379 594 b 21 601 286 603 53 635 b 3 540 7 586 4 560 b 21 326 1 508 1 347 b 51 315 29 318 40 315 b 507 322 201 315 356 347 b 600 329 529 318 586 306 z "},".":{"ha":347,"x_min":0,"x_max":0,"o":"m 201 -12 b 208 311 386 18 404 281 b 4 118 97 329 -24 239 b 201 -12 24 36 118 -26 z "},"/":{"ha":732,"x_min":0,"x_max":0,"o":"m 474 358 b 589 592 514 435 551 514 b 714 850 631 678 664 768 b 756 963 729 875 771 933 b 511 1101 740 990 546 1090 b 467 1088 490 1108 479 1107 b 418 979 446 1054 433 1015 b 210 526 356 826 282 675 b 40 201 156 417 104 306 b -25 92 25 178 -19 114 b -19 65 -28 82 -26 74 b 238 -76 -14 58 218 -69 b 290 -65 256 -83 276 -79 b 474 357 310 -46 458 310 l 474 358 z "},":":{"ha":356,"x_min":0,"x_max":0,"o":"m 232 458 b 122 769 458 535 343 847 b 232 458 -96 692 40 393 z m 201 -12 b 208 311 386 18 404 281 b 4 118 97 329 -24 239 b 201 -12 24 36 118 -26 z "},";":{"ha":375,"x_min":0,"x_max":0,"o":"m 207 383 b 360 511 269 389 346 449 b 92 682 396 672 217 767 b 207 383 -56 582 43 369 z m 249 33 b 100 -124 254 -85 82 -37 b 176 -160 107 -157 147 -165 b 136 292 485 -106 403 343 b 4 90 42 274 -14 183 b 249 33 25 -15 185 -57 z "},"<":{"ha":561,"x_min":0,"x_max":0,"o":"m 290 449 b 518 581 338 482 493 553 b 508 661 542 608 526 636 b 382 799 489 689 413 792 b 238 718 347 807 267 738 b -10 546 206 696 0 565 b 18 290 -17 532 13 318 b 44 253 21 275 31 261 b 122 229 57 244 104 235 b 404 131 219 203 315 179 b 458 104 415 125 449 106 b 481 107 467 103 474 103 b 544 224 504 119 533 197 b 576 301 556 247 571 276 b 569 339 579 314 578 328 b 290 449 540 378 343 436 z "},"=":{"ha":636,"x_min":0,"x_max":0,"o":"m 628 478 b 611 668 636 494 625 656 b 560 681 597 681 576 681 b 356 675 492 679 425 669 b 65 689 263 682 157 697 b 17 669 47 688 28 683 b 4 597 1 650 4 621 b 19 471 4 572 3 488 b 83 463 31 458 67 461 b 526 467 229 471 381 481 b 628 478 551 464 614 449 z m 626 188 b 631 251 638 199 632 236 b 617 383 628 286 632 354 b 521 394 603 410 544 397 b 29 396 436 386 63 419 b 10 364 18 389 13 376 b 24 189 3 335 6 208 b 44 181 29 182 36 182 b 176 186 86 176 133 183 b 510 186 285 193 401 194 b 626 188 533 185 610 171 z "},">":{"ha":563,"x_min":0,"x_max":0,"o":"m 272 454 b 44 322 222 421 72 354 b 54 243 21 294 36 268 b 179 106 76 214 146 114 b 325 186 215 96 296 165 b 571 357 360 210 560 336 b 547 558 585 383 554 522 b 544 614 544 576 549 596 b 517 651 542 631 531 643 b 439 674 494 664 463 667 b 158 774 343 699 247 728 b 104 800 149 779 113 799 b 82 797 97 801 89 800 b 18 681 57 786 29 706 b -8 565 6 653 -29 594 b 272 454 17 528 222 467 z "},"?":{"ha":718,"x_min":0,"x_max":0,"o":"m 263 761 b 397 636 326 833 433 733 b 194 407 364 546 233 517 b 196 331 189 390 167 338 b 218 331 203 329 210 332 b 422 263 288 314 356 290 b 492 401 476 240 460 357 b 679 569 538 467 628 507 b 699 899 749 653 764 808 b 572 1003 667 943 621 978 b -18 744 319 1132 39 1036 b 314 656 -58 536 293 415 b 263 761 318 696 307 747 z m 310 -21 b 383 231 438 -12 507 158 b 165 50 249 310 85 167 b 310 -21 196 6 256 -25 z "},"@":{"ha":1114,"x_min":0,"x_max":0,"o":"m 958 -68 b 860 143 901 -6 904 78 b 832 150 863 163 839 168 b 682 68 781 125 735 90 b 406 39 608 36 483 17 b 229 615 185 103 125 435 b 478 789 282 707 379 760 b 857 699 601 825 775 811 b 899 519 883 661 914 564 b 831 461 889 492 863 457 b 761 704 785 492 808 688 b 635 681 751 708 647 685 b 485 90 301 807 107 204 b 603 85 525 78 563 75 b 815 246 697 106 771 160 b 863 204 828 228 842 213 b 1131 497 1061 126 1124 346 b 1025 821 1136 615 1107 732 b 419 999 888 971 615 1047 b 78 728 289 965 147 842 b 340 -181 -111 417 -8 -33 b 867 -172 489 -243 717 -229 b 975 -101 893 -162 967 -131 b 958 -68 979 -86 975 -71 z m 606 326 b 596 504 506 342 544 490 b 675 465 622 511 663 488 b 606 326 700 418 669 317 z "},"A":{"ha":739,"x_min":0,"x_max":0,"o":"m 283 219 b 442 199 336 215 389 203 b 517 1 404 53 329 26 b 649 6 549 -3 625 -21 b 685 76 665 25 678 51 b 386 972 757 335 828 1024 b -6 90 24 929 -18 365 b -1 74 -6 86 -3 78 b 275 22 14 31 239 -3 b 283 219 297 38 283 188 z m 299 415 b 400 681 310 492 325 639 b 481 394 532 753 488 443 b 299 415 422 411 360 419 z "},"B":{"ha":729,"x_min":0,"x_max":0,"o":"m 557 392 b 656 444 590 407 626 421 b 704 814 753 521 760 711 b 388 999 640 932 513 978 b 113 988 329 1008 161 1017 b 90 968 103 982 97 976 b 50 525 57 932 57 593 b 10 51 42 447 -33 94 b 233 -3 38 24 192 4 b 488 -15 286 -11 438 -25 b 557 392 697 26 743 275 z m 313 574 b 326 678 317 608 321 643 b 343 722 328 690 329 717 b 447 589 389 742 557 646 b 321 571 413 571 360 560 l 313 574 z m 268 256 b 283 347 268 286 279 317 b 268 256 478 326 436 192 z "},"C":{"ha":704,"x_min":0,"x_max":0,"o":"m 539 36 b 722 156 583 49 724 101 b 614 361 721 196 669 365 b 426 290 588 358 519 285 b 296 468 336 296 286 385 b 539 681 318 661 528 615 b 507 807 542 700 514 783 b 472 885 501 826 489 875 b 375 889 456 894 396 890 b 253 36 -53 847 -160 156 b 539 36 346 10 446 11 z "},"D":{"ha":760,"x_min":0,"x_max":0,"o":"m 175 -17 b 571 83 299 -14 471 1 b 461 1011 856 315 842 914 b 32 972 385 1031 78 1043 b 10 778 18 950 11 813 b 67 22 -3 535 0 257 b 74 8 68 19 71 10 b 175 -17 99 -11 144 -18 z m 315 389 b 319 718 286 429 271 689 b 443 707 347 735 415 722 b 504 638 471 692 492 665 b 315 389 572 488 378 303 z "},"E":{"ha":643,"x_min":0,"x_max":0,"o":"m 319 282 b 313 379 317 314 313 347 b 551 425 350 390 535 397 b 551 506 560 438 553 489 b 543 610 550 540 556 576 b 293 613 514 686 351 614 l 283 618 b 283 707 276 635 268 694 b 608 778 324 740 593 733 b 603 881 613 790 603 860 b 600 971 603 900 607 956 b 342 979 585 1010 383 982 b -1 911 288 975 25 953 b -4 879 -7 901 -6 889 b 46 54 35 608 46 328 b 63 17 46 43 53 24 b 147 22 76 8 131 19 b 286 42 193 31 239 38 b 635 58 344 47 604 38 b 636 304 656 72 661 283 b 529 315 613 324 558 318 b 319 282 460 310 389 285 z "},"F":{"ha":663,"x_min":0,"x_max":0,"o":"m 389 763 b 639 763 454 788 597 715 b 678 881 656 781 672 854 b 664 982 685 914 686 954 b 415 1021 631 1025 471 1013 b 238 1047 357 1029 297 1046 b 150 1028 208 1047 175 1043 b 100 957 125 1013 108 985 b 50 460 57 811 61 613 b 3 122 42 349 26 231 b -11 46 -3 97 -12 72 b 257 -21 -7 -31 210 -51 b 353 357 332 28 267 317 b 557 367 406 382 500 328 b 579 572 597 394 622 540 b 363 621 546 597 378 597 b 364 667 357 631 363 656 b 389 763 368 700 371 733 z "},"G":{"ha":756,"x_min":0,"x_max":0,"o":"m 514 339 b 501 294 511 324 510 308 b 381 275 478 258 415 260 b 288 686 265 324 238 585 b 396 736 306 722 354 769 b 432 629 432 707 414 664 b 471 604 440 614 454 607 b 579 619 507 599 543 613 b 694 665 614 626 688 619 b 685 731 699 688 690 710 b 553 978 663 826 636 914 b 307 1011 485 1031 386 1043 b 14 688 178 960 56 821 b 0 404 -15 596 -12 497 b 406 -39 32 158 147 -7 b 568 -12 461 -46 517 -36 b 683 76 613 8 656 35 b 757 471 757 188 776 342 b 722 539 754 493 750 533 b 529 524 718 540 556 524 b 410 518 504 524 429 528 b 406 342 363 494 356 360 b 514 339 435 331 483 336 z "},"H":{"ha":842,"x_min":0,"x_max":0,"o":"m 378 347 b 554 369 436 354 496 358 b 596 -7 560 321 571 8 b 808 -4 607 -14 797 -10 b 840 33 819 0 838 22 b 835 75 843 43 836 64 b 822 954 799 364 822 664 b 815 1011 822 974 824 993 b 761 1043 804 1033 785 1043 b 485 1000 717 1043 499 1028 b 504 640 463 958 504 708 b 347 625 451 638 400 632 b 304 1013 340 685 332 986 b 15 993 275 1040 60 1006 b -7 939 -10 986 -8 960 b 93 4 -4 903 83 21 b 125 -18 101 -8 110 -15 b 390 7 144 -21 381 1 b 403 67 411 18 406 47 b 378 347 389 160 383 253 z "},"I":{"ha":461,"x_min":0,"x_max":0,"o":"m 324 617 b 221 1003 589 700 489 1067 b 206 624 15 954 7 692 b 53 625 179 626 71 647 b 8 1 15 579 -22 50 b 132 -33 26 -26 101 -32 b 276 -33 178 -35 231 -40 b 307 -14 288 -32 303 -26 b 319 296 308 -10 315 256 b 342 611 324 342 368 590 b 324 617 338 615 329 617 z "},"J":{"ha":697,"x_min":0,"x_max":0,"o":"m 218 222 b 276 289 238 244 265 261 b 15 350 336 432 110 526 b 322 -54 -100 135 101 -74 b 558 1 400 -47 492 -42 b 696 235 636 51 686 144 b 679 557 707 343 694 450 b 615 1018 672 603 618 1013 b 596 1040 611 1028 606 1036 b 322 1006 564 1057 369 1015 b 269 972 303 1001 278 993 b 304 826 260 947 294 856 b 381 432 325 761 374 504 b 374 269 386 378 386 322 b 242 203 361 218 290 181 b 218 222 232 207 224 214 z "},"K":{"ha":806,"x_min":0,"x_max":0,"o":"m 499 488 b 800 883 599 547 888 746 b 654 981 774 925 710 994 b 335 676 607 969 393 729 b 372 972 340 736 379 931 b 79 1018 357 1065 124 1086 b 14 601 38 956 19 688 b 40 35 10 519 -18 74 b 108 15 51 28 94 18 b 325 63 160 6 314 -11 b 319 294 335 128 319 225 b 632 -11 371 215 533 -11 b 793 224 700 -11 822 157 b 499 488 782 249 549 424 z "},"L":{"ha":610,"x_min":0,"x_max":0,"o":"m 343 313 b 324 614 339 414 331 514 b 310 960 315 726 328 849 b 283 1013 307 979 299 1000 b -1 974 238 1050 11 1044 b 26 735 -7 940 22 785 b 31 546 32 672 28 608 b 32 160 35 418 40 288 b 33 44 31 135 18 64 b 157 43 53 21 129 40 b 600 44 232 50 576 35 b 608 324 642 61 633 294 b 343 313 578 360 394 315 z "},"M":{"ha":1008,"x_min":0,"x_max":0,"o":"m 271 458 b 393 125 289 408 365 144 b 460 128 407 115 443 125 b 592 168 492 133 583 132 b 604 253 599 194 599 225 b 669 572 622 358 639 469 b 696 60 683 403 672 228 b 731 0 699 39 701 -1 b 1017 25 763 1 1008 17 b 1013 104 1032 39 1017 86 b 914 732 956 310 931 519 b 890 1003 911 774 911 981 b 724 1011 860 1035 765 1011 b 574 953 656 1011 600 1029 b 454 519 524 813 500 661 b 401 713 435 583 417 647 b 354 911 386 776 376 850 b 331 946 350 925 343 938 b -1 863 293 968 17 915 b -6 826 -6 851 -6 839 b 79 4 -4 751 56 69 b 122 -11 86 -14 106 -12 b 315 10 174 -8 268 -1 b 331 26 324 11 332 17 b 271 458 310 169 282 313 z "},"N":{"ha":785,"x_min":0,"x_max":0,"o":"m 344 8 b 311 289 358 33 318 249 b 492 32 385 213 438 122 b 507 6 496 26 503 10 b 604 4 525 -15 581 0 b 776 43 644 11 758 -3 b 781 171 785 63 781 144 b 764 474 781 271 767 372 b 763 914 760 621 763 767 b 775 1004 763 944 783 972 b 590 1024 761 1060 632 1021 b 449 1014 557 1025 474 1035 b 442 954 433 1001 439 971 b 504 388 474 767 486 576 b 329 743 444 506 369 617 b 283 858 322 765 299 847 b -10 810 256 879 4 842 b -4 761 -17 794 -8 776 b 69 54 63 533 61 290 b 74 -11 69 42 69 -1 b 161 -7 85 -40 140 -11 b 344 8 204 3 301 11 z "},"O":{"ha":788,"x_min":0,"x_max":0,"o":"m 465 10 b 632 940 868 65 874 710 b 347 1010 568 1001 432 1021 b 90 885 253 999 156 956 b 465 10 -133 642 28 -51 z m 385 332 b 357 721 306 393 232 682 b 469 663 393 732 451 692 b 485 342 517 590 563 407 b 385 332 460 321 413 310 z "},"P":{"ha":685,"x_min":0,"x_max":0,"o":"m 296 332 b 344 335 311 331 329 332 b 489 1011 785 404 794 919 b 338 1029 440 1026 389 1028 b 24 1004 238 1031 119 1035 b 11 994 19 1000 15 999 b 3 949 0 983 3 963 b 11 603 8 833 8 718 b 31 13 15 406 31 210 b 43 -25 31 0 33 -15 b 268 -18 67 -44 232 -22 b 338 4 286 -15 328 -14 b 296 332 343 14 300 293 z m 244 815 b 265 568 493 881 522 624 b 244 815 256 650 250 733 z "},"Q":{"ha":779,"x_min":0,"x_max":0,"o":"m 603 132 b 728 386 667 204 701 294 b 446 1015 800 643 765 965 b 225 967 381 1025 281 1004 b -4 361 28 832 -14 583 b 282 4 4 178 86 29 b 446 22 338 -3 393 6 b 590 -140 468 -7 567 -128 b 633 -144 606 -149 617 -150 b 785 -21 656 -137 771 -42 b 790 18 793 -8 797 4 b 603 132 783 33 631 114 z m 325 661 b 469 699 331 719 426 757 b 374 333 532 613 501 344 b 325 661 226 321 286 624 z "},"R":{"ha":778,"x_min":0,"x_max":0,"o":"m 292 263 b 560 68 368 182 460 117 b 656 32 581 58 635 29 b 789 261 690 36 810 233 b 725 297 781 272 739 289 b 544 417 661 332 606 378 b 746 693 653 478 722 571 b 744 806 753 731 754 768 b 256 1079 689 1024 454 1088 b 85 1039 203 1078 128 1075 b 10 506 -19 950 10 633 b 26 146 10 386 13 265 b 100 -17 32 97 38 -8 b 264 6 125 -19 236 -1 b 335 44 286 11 328 18 b 292 263 336 47 296 238 z m 260 565 b 285 794 257 606 251 772 b 432 646 378 856 531 747 b 260 565 388 600 315 592 z "},"S":{"ha":600,"x_min":0,"x_max":0,"o":"m 261 -19 b 528 122 360 1 460 44 b 611 328 576 178 606 254 b 321 679 631 599 306 574 b 538 758 332 760 514 735 b 522 1003 549 769 528 992 b 432 1025 513 1019 450 1024 b 142 414 18 1049 -168 599 b 301 324 175 394 296 358 b 51 219 314 254 86 264 b 94 -26 32 193 68 -7 b 261 -19 124 -49 225 -26 z "},"T":{"ha":794,"x_min":0,"x_max":0,"o":"m 518 725 b 783 719 563 722 760 697 b 813 849 806 740 810 818 b 796 953 814 875 821 935 b 92 986 774 968 163 986 b -19 946 58 986 -21 997 b -1 753 -18 892 -14 804 b 43 721 4 732 22 719 b 240 751 107 725 175 743 b 144 43 228 675 138 53 b 478 15 164 14 451 -17 b 518 725 489 29 514 654 z "},"U":{"ha":768,"x_min":0,"x_max":0,"o":"m 372 36 b 763 883 753 63 807 854 b 664 900 749 893 685 896 b 549 904 636 906 569 926 b 436 490 533 889 515 614 b 299 451 407 446 347 394 b 325 892 206 563 338 829 b 140 969 314 946 186 969 b 74 950 111 969 97 969 b 372 36 17 901 -169 -1 z "},"V":{"ha":713,"x_min":0,"x_max":0,"o":"m 331 247 b 344 988 272 354 369 843 b 324 1025 342 1003 338 1017 b 271 1032 307 1035 289 1035 b 156 1010 232 1028 194 1011 b 51 1006 122 1008 85 1013 b 8 985 38 1003 18 996 b 100 22 -31 942 47 97 b 369 -22 133 -25 314 -24 b 449 0 397 -21 426 -17 b 590 401 515 50 568 314 b 732 871 607 465 736 849 b 532 972 721 936 588 967 b 467 967 515 974 481 975 b 353 301 399 928 369 388 b 331 247 351 292 343 246 z "},"W":{"ha":1074,"x_min":0,"x_max":0,"o":"m 775 325 b 599 711 704 389 647 692 b 538 714 579 719 557 714 b 453 700 508 715 475 726 b 293 349 407 646 349 379 l 283 353 b 346 649 278 410 332 582 b 382 1003 357 700 404 963 b 81 1025 347 1064 126 1074 b 63 964 65 1008 65 985 b 29 89 32 764 -43 271 b 185 4 57 19 117 10 b 507 382 421 -17 457 201 b 644 4 524 290 561 51 b 744 -17 675 -12 711 -15 b 1056 114 836 -19 1017 21 b 988 1017 1101 224 1040 947 b 772 1008 950 1065 819 1028 b 719 969 753 1000 731 989 b 775 325 683 907 789 460 z "},"X":{"ha":790,"x_min":0,"x_max":0,"o":"m 743 139 b 751 179 753 150 751 165 b 732 222 751 196 743 210 b 544 482 660 304 594 383 b 803 749 600 544 781 699 b 775 850 818 782 793 822 b 658 947 750 889 710 944 b 389 747 588 951 439 797 b 244 1006 365 790 276 992 b 158 985 221 1015 179 996 b 67 901 124 965 86 938 b 189 521 21 817 146 600 b -11 256 146 469 8 308 b 44 115 -28 210 15 149 b 149 46 72 83 108 57 b 185 44 158 38 174 42 b 218 74 200 49 210 60 b 346 261 256 139 296 204 b 568 -12 378 214 513 -21 b 743 139 640 -1 718 72 z "},"Y":{"ha":879,"x_min":0,"x_max":0,"o":"m 365 500 b 267 32 340 425 239 82 b 293 7 272 24 283 11 b 507 -19 313 -3 468 -12 b 594 -14 532 -24 572 -31 b 615 42 611 -1 613 24 b 811 783 651 300 701 546 b 904 979 828 821 904 947 b 596 1086 904 1042 668 1142 b 539 1001 568 1065 553 1032 b 457 785 522 965 465 797 b 349 747 435 753 385 708 b 185 1060 257 846 385 1092 b 4 1004 138 1053 39 1038 b -19 943 -12 989 -21 965 b 3 833 -18 906 -7 869 b 365 500 54 638 97 406 z "},"Z":{"ha":679,"x_min":0,"x_max":0,"o":"m 317 328 b 597 607 399 431 497 522 b 672 694 619 626 672 663 b 686 869 671 754 675 810 b 692 928 689 882 696 917 b 646 947 686 943 660 946 b 343 960 546 956 443 953 b 82 978 256 965 169 979 b 32 965 65 978 46 976 b 22 933 22 957 22 944 b 25 718 24 894 14 738 b 151 721 42 690 125 719 b 392 708 228 725 317 718 b 267 588 351 667 310 626 b 18 343 225 549 36 376 b -1 138 1 311 -10 175 b 38 82 3 117 18 92 b 82 75 50 75 68 75 b 493 35 222 79 356 61 b 561 26 515 31 538 25 b 586 33 569 26 579 28 b 606 156 601 46 601 132 b 626 281 610 185 639 257 b 317 328 614 304 358 322 z "},"[":{"ha":469,"x_min":0,"x_max":0,"o":"m 294 207 b 286 393 294 269 289 331 b 296 825 278 538 290 681 b 468 869 351 840 415 850 b 471 983 513 885 479 953 b 418 1165 460 1022 443 1143 b 264 1147 393 1188 296 1153 b 17 1085 218 1139 35 1125 b 10 1046 11 1072 10 1058 b 15 38 10 710 24 374 b 21 -25 15 17 10 -6 b 421 -111 38 -54 374 -111 b 449 -100 431 -111 442 -107 b 474 19 467 -83 471 -7 b 294 207 499 231 486 161 z "},"\\":{"ha":733,"x_min":0,"x_max":0,"o":"m 497 -75 b 754 65 521 -65 749 58 b 689 208 775 96 706 181 b 322 967 557 428 424 729 b 268 1088 306 1006 290 1051 b 94 1036 240 1132 129 1054 b -26 942 64 1021 -32 982 b 13 863 -24 915 -1 885 b 129 624 58 786 92 704 b 264 350 172 533 226 442 b 389 46 306 249 346 147 b 497 -75 407 4 435 -100 z "},"]":{"ha":469,"x_min":0,"x_max":0,"o":"m 174 825 b 183 393 179 681 190 538 b 175 207 181 331 176 269 b 0 172 143 199 14 181 b 19 -100 -31 154 -1 -78 b 44 -111 26 -107 35 -110 b 444 -32 76 -114 428 -50 b 453 411 464 -11 453 354 b 453 1085 453 499 468 1051 b 315 1131 438 1118 349 1126 b 61 1169 272 1136 85 1179 b 1 993 25 1154 13 1031 b 0 869 -7 961 -43 889 b 174 825 44 850 124 839 z "},"^":{"ha":414,"x_min":0,"x_max":0,"o":"m 194 803 b 271 639 207 771 246 656 b 417 688 288 628 403 674 b 422 719 425 696 425 708 b 406 757 418 732 411 744 b 321 965 371 825 349 894 b 290 1017 314 983 306 1004 b 119 1019 267 1035 139 1038 b -8 672 103 1003 -10 693 b 126 619 -22 632 104 614 b 194 803 167 629 185 765 z "},"_":{"ha":811,"x_min":0,"x_max":0,"o":"m 346 -203 b 796 -189 404 -203 767 -207 b 814 -167 804 -183 810 -176 b 781 103 826 -139 819 79 b 339 97 740 126 413 97 b 31 100 278 97 78 110 b 1 69 14 96 6 86 b 32 -190 -4 43 13 -178 b 346 -203 53 -204 304 -203 z "},"a":{"ha":736,"x_min":0,"x_max":0,"o":"m 282 219 b 440 199 335 215 388 203 b 515 1 403 53 328 26 b 647 6 547 -3 624 -21 b 683 76 664 25 676 51 b 385 972 756 335 826 1024 b -7 90 22 929 -19 365 b -3 74 -7 86 -4 78 b 274 22 13 31 238 -3 b 282 219 296 38 282 188 z m 297 415 b 399 681 308 492 324 639 b 479 394 531 753 486 443 b 297 415 421 411 358 419 z "},"b":{"ha":726,"x_min":0,"x_max":0,"o":"m 556 392 b 654 444 589 407 625 421 b 703 814 751 521 758 711 b 386 999 639 932 511 978 b 111 988 328 1008 160 1017 b 89 968 101 982 96 976 b 49 525 56 932 56 593 b 8 51 40 447 -35 94 b 232 -3 36 24 190 4 b 486 -15 285 -11 436 -25 b 556 392 696 26 742 275 z m 311 574 b 325 678 315 608 319 643 b 342 722 326 690 328 717 b 446 589 388 742 556 646 b 319 571 411 571 358 560 l 311 574 z m 267 256 b 282 347 267 286 278 317 b 267 256 476 326 435 192 z "},"c":{"ha":704,"x_min":0,"x_max":0,"o":"m 538 36 b 721 156 582 49 722 101 b 613 361 719 196 668 365 b 425 290 586 358 518 285 b 294 468 335 296 285 385 b 538 681 317 661 526 615 b 506 807 540 700 513 783 b 471 885 500 826 488 875 b 374 889 454 894 394 890 b 251 36 -54 847 -161 156 b 538 36 344 10 444 11 z "},"d":{"ha":758,"x_min":0,"x_max":0,"o":"m 174 -17 b 569 83 297 -14 469 1 b 460 1011 854 315 840 914 b 31 972 383 1031 76 1043 b 8 778 17 950 10 813 b 65 22 -4 535 -1 257 b 72 8 67 19 69 10 b 174 -17 97 -11 143 -18 z m 314 389 b 318 718 285 429 269 689 b 442 707 346 735 414 722 b 503 638 469 692 490 665 b 314 389 571 488 376 303 z "},"e":{"ha":640,"x_min":0,"x_max":0,"o":"m 318 282 b 311 379 315 314 311 347 b 550 425 349 390 533 397 b 550 506 558 438 551 489 b 542 610 549 540 554 576 b 292 613 513 686 350 614 l 282 618 b 282 707 275 635 267 694 b 607 778 322 740 592 733 b 601 881 611 790 601 860 b 599 971 601 900 606 956 b 340 979 583 1010 382 982 b -3 911 286 975 24 953 b -6 879 -8 901 -7 889 b 44 54 33 608 44 328 b 61 17 44 43 51 24 b 146 22 75 8 129 19 b 285 42 192 31 238 38 b 633 58 343 47 603 38 b 635 304 654 72 660 283 b 528 315 611 324 557 318 b 318 282 458 310 388 285 z "},"f":{"ha":661,"x_min":0,"x_max":0,"o":"m 388 763 b 638 763 453 788 596 715 b 676 881 654 781 671 854 b 663 982 683 914 685 954 b 414 1021 629 1025 469 1013 b 236 1047 356 1029 296 1046 b 149 1028 207 1047 174 1043 b 99 957 124 1013 107 985 b 49 460 56 811 60 613 b 1 122 40 349 25 231 b -12 46 -4 97 -14 72 b 256 -21 -8 -31 208 -51 b 351 357 331 28 265 317 b 556 367 404 382 499 328 b 578 572 596 394 621 540 b 361 621 544 597 376 597 b 363 667 356 631 361 656 b 388 763 367 700 369 733 z "},"g":{"ha":753,"x_min":0,"x_max":0,"o":"m 513 339 b 500 294 510 324 508 308 b 379 275 476 258 414 260 b 286 686 264 324 236 585 b 394 736 304 722 353 769 b 431 629 431 707 413 664 b 469 604 439 614 453 607 b 578 619 506 599 542 613 b 693 665 613 626 686 619 b 683 731 697 688 689 710 b 551 978 661 826 635 914 b 306 1011 483 1031 385 1043 b 13 688 176 960 54 821 b -1 404 -17 596 -14 497 b 404 -39 31 158 146 -7 b 567 -12 460 -46 515 -36 b 682 76 611 8 654 35 b 756 471 756 188 775 342 b 721 539 753 493 749 533 b 528 524 717 540 554 524 b 408 518 503 524 428 528 b 404 342 361 494 354 360 b 513 339 433 331 482 336 z "},"h":{"ha":839,"x_min":0,"x_max":0,"o":"m 376 347 b 553 369 435 354 494 358 b 594 -7 558 321 569 8 b 807 -4 606 -14 796 -10 b 839 33 818 0 836 22 b 833 75 842 43 835 64 b 821 954 797 364 821 664 b 814 1011 821 974 822 993 b 760 1043 803 1033 783 1043 b 483 1000 715 1043 497 1028 b 503 640 461 958 503 708 b 346 625 450 638 399 632 b 303 1013 339 685 331 986 b 14 993 274 1040 58 1006 b -8 939 -11 986 -10 960 b 92 4 -6 903 82 21 b 124 -18 100 -8 108 -15 b 389 7 143 -21 379 1 b 401 67 410 18 404 47 b 376 347 388 160 382 253 z "},"i":{"ha":460,"x_min":0,"x_max":0,"o":"m 322 617 b 219 1003 588 700 488 1067 b 204 624 14 954 6 692 b 51 625 178 626 69 647 b 7 1 14 579 -24 50 b 131 -33 25 -26 100 -32 b 275 -33 176 -35 229 -40 b 306 -14 286 -32 301 -26 b 318 296 307 -10 314 256 b 340 611 322 342 367 590 b 322 617 336 615 328 617 z "},"j":{"ha":697,"x_min":0,"x_max":0,"o":"m 219 222 b 278 289 239 244 267 261 b 17 350 338 432 111 526 b 324 -54 -99 135 103 -74 b 560 1 401 -47 493 -42 b 697 235 638 51 688 144 b 681 557 708 343 696 450 b 617 1018 674 603 619 1013 b 597 1040 613 1028 607 1036 b 324 1006 565 1057 371 1015 b 271 972 304 1001 279 993 b 306 826 261 947 296 856 b 382 432 326 761 375 504 b 375 269 388 378 388 322 b 243 203 363 218 292 181 b 219 222 233 207 225 214 z "},"k":{"ha":804,"x_min":0,"x_max":0,"o":"m 497 488 b 799 883 597 547 886 746 b 653 981 772 925 708 994 b 333 676 606 969 392 729 b 371 972 339 736 378 931 b 78 1018 356 1065 122 1086 b 13 601 36 956 18 688 b 39 35 8 519 -19 74 b 107 15 50 28 93 18 b 324 63 158 6 313 -11 b 318 294 333 128 318 225 b 631 -11 369 215 532 -11 b 792 224 699 -11 821 157 b 497 488 781 249 547 424 z "},"l":{"ha":610,"x_min":0,"x_max":0,"o":"m 342 313 b 322 614 338 414 329 514 b 308 960 314 726 326 849 b 282 1013 306 979 297 1000 b -3 974 236 1050 10 1044 b 25 735 -8 940 21 785 b 29 546 31 672 26 608 b 31 160 33 418 39 288 b 32 44 29 135 17 64 b 156 43 51 21 128 40 b 599 44 231 50 575 35 b 607 324 640 61 632 294 b 342 313 576 360 393 315 z "},"m":{"ha":1006,"x_min":0,"x_max":0,"o":"m 269 458 b 392 125 288 408 364 144 b 458 128 406 115 442 125 b 590 168 490 133 582 132 b 603 253 597 194 597 225 b 668 572 621 358 638 469 b 694 60 682 403 671 228 b 729 0 697 39 700 -1 b 1015 25 761 1 1007 17 b 1011 104 1031 39 1015 86 b 913 732 954 310 929 519 b 889 1003 910 774 910 981 b 722 1011 858 1035 764 1011 b 572 953 654 1011 599 1029 b 453 519 522 813 499 661 b 400 713 433 583 415 647 b 353 911 385 776 375 850 b 329 946 349 925 342 938 b -3 863 292 968 15 915 b -7 826 -7 851 -7 839 b 78 4 -6 751 54 69 b 121 -11 85 -14 104 -12 b 314 10 172 -8 267 -1 b 329 26 322 11 331 17 b 269 458 308 169 281 313 z "},"n":{"ha":782,"x_min":0,"x_max":0,"o":"m 343 8 b 310 289 357 33 317 249 b 490 32 383 213 436 122 b 506 6 494 26 501 10 b 603 4 524 -15 579 0 b 775 43 643 11 757 -3 b 779 171 783 63 779 144 b 763 474 779 271 765 372 b 761 914 758 621 761 767 b 774 1004 761 944 782 972 b 589 1024 760 1060 631 1021 b 447 1014 556 1025 472 1035 b 440 954 432 1001 438 971 b 503 388 472 767 485 576 b 328 743 443 506 368 617 b 282 858 321 765 297 847 b -11 810 254 879 3 842 b -6 761 -18 794 -10 776 b 68 54 61 533 60 290 b 72 -11 68 42 68 -1 b 160 -7 83 -40 139 -11 b 343 8 203 3 300 11 z "},"o":{"ha":785,"x_min":0,"x_max":0,"o":"m 464 10 b 631 940 867 65 872 710 b 346 1010 567 1001 431 1021 b 89 885 251 999 154 956 b 464 10 -135 642 26 -51 z m 383 332 b 356 721 304 393 231 682 b 468 663 392 732 450 692 b 483 342 515 590 561 407 b 383 332 458 321 411 310 z "},"p":{"ha":683,"x_min":0,"x_max":0,"o":"m 294 332 b 343 335 310 331 328 332 b 488 1011 783 404 793 919 b 336 1029 439 1026 388 1028 b 22 1004 236 1031 118 1035 b 10 994 18 1000 14 999 b 1 949 -1 983 1 963 b 10 603 7 833 7 718 b 29 13 14 406 29 210 b 42 -25 29 0 32 -15 b 267 -18 65 -44 231 -22 b 336 4 285 -15 326 -14 b 294 332 342 14 299 293 z m 243 815 b 264 568 492 881 521 624 b 243 815 254 650 249 733 z "},"q":{"ha":776,"x_min":0,"x_max":0,"o":"m 601 132 b 726 386 665 204 700 294 b 444 1015 799 643 764 965 b 224 967 379 1025 279 1004 b -6 361 26 832 -15 583 b 281 4 3 178 85 29 b 444 22 336 -3 392 6 b 589 -140 467 -7 565 -128 b 632 -144 604 -149 615 -150 b 783 -21 654 -137 769 -42 b 789 18 792 -8 796 4 b 601 132 782 33 629 114 z m 324 661 b 468 699 329 719 425 757 b 372 333 531 613 500 344 b 324 661 225 321 285 624 z "},"r":{"ha":775,"x_min":0,"x_max":0,"o":"m 290 263 b 558 68 367 182 458 117 b 654 32 579 58 633 29 b 788 261 689 36 808 233 b 724 297 779 272 738 289 b 543 417 660 332 604 378 b 744 693 651 478 721 571 b 743 806 751 731 753 768 b 254 1079 688 1024 453 1088 b 83 1039 201 1078 126 1075 b 8 506 -21 950 8 633 b 25 146 8 386 11 265 b 99 -17 31 97 36 -8 b 263 6 124 -19 235 -1 b 333 44 285 11 326 18 b 290 263 335 47 294 238 z m 258 565 b 283 794 256 606 250 772 b 431 646 376 856 529 747 b 258 565 386 600 314 592 z "},"s":{"ha":597,"x_min":0,"x_max":0,"o":"m 260 -19 b 526 122 358 1 458 44 b 610 328 575 178 604 254 b 319 679 629 599 304 574 b 536 758 331 760 513 735 b 521 1003 547 769 526 992 b 431 1025 511 1019 449 1024 b 140 414 17 1049 -169 599 b 300 324 174 394 294 358 b 50 219 313 254 85 264 b 93 -26 31 193 67 -7 b 260 -19 122 -49 224 -26 z "},"t":{"ha":797,"x_min":0,"x_max":0,"o":"m 519 725 b 785 719 564 722 761 697 b 814 849 807 740 811 818 b 797 953 815 875 822 935 b 93 986 775 968 164 986 b -18 946 60 986 -19 997 b 0 753 -17 892 -12 804 b 44 721 6 732 24 719 b 242 751 108 725 176 743 b 146 43 229 675 139 53 b 479 15 165 14 453 -17 b 519 725 490 29 515 654 z "},"u":{"ha":765,"x_min":0,"x_max":0,"o":"m 371 36 b 761 883 751 63 806 854 b 663 900 747 893 683 896 b 547 904 635 906 568 926 b 435 490 532 889 514 614 b 297 451 406 446 346 394 b 324 892 204 563 336 829 b 139 969 313 946 185 969 b 72 950 110 969 96 969 b 371 36 15 901 -171 -1 z "},"v":{"ha":711,"x_min":0,"x_max":0,"o":"m 329 247 b 343 988 271 354 368 843 b 322 1025 340 1003 336 1017 b 269 1032 306 1035 288 1035 b 154 1010 231 1028 193 1011 b 50 1006 121 1008 83 1013 b 7 985 36 1003 17 996 b 99 22 -32 942 46 97 b 368 -22 132 -25 313 -24 b 447 0 396 -21 425 -17 b 589 401 514 50 567 314 b 731 871 606 465 735 849 b 531 972 719 936 586 967 b 465 967 514 974 479 975 b 351 301 397 928 368 388 b 329 247 350 292 342 246 z "},"w":{"ha":1072,"x_min":0,"x_max":0,"o":"m 775 325 b 599 711 704 389 647 692 b 538 714 579 719 557 714 b 453 700 508 715 475 726 b 293 349 407 646 349 379 l 283 353 b 346 649 278 410 332 582 b 382 1003 357 700 404 963 b 81 1025 347 1064 126 1074 b 63 964 65 1008 65 985 b 29 89 32 764 -43 271 b 185 4 57 19 117 10 b 507 382 421 -17 457 201 b 644 4 524 290 561 51 b 744 -17 675 -12 711 -15 b 1056 114 836 -19 1017 21 b 988 1017 1101 224 1040 947 b 772 1008 950 1065 819 1028 b 719 969 753 1000 731 989 b 775 325 683 907 789 460 z "},"x":{"ha":788,"x_min":0,"x_max":0,"o":"m 742 139 b 750 179 751 150 750 165 b 731 222 750 196 742 210 b 543 482 658 304 593 383 b 801 749 599 544 779 699 b 774 850 817 782 792 822 b 657 947 749 889 708 944 b 388 747 586 951 438 797 b 243 1006 364 790 275 992 b 157 985 219 1015 178 996 b 65 901 122 965 85 938 b 188 521 19 817 144 600 b -12 256 144 469 7 308 b 43 115 -29 210 14 149 b 147 46 71 83 107 57 b 183 44 157 38 172 42 b 217 74 199 49 208 60 b 344 261 254 139 294 204 b 567 -12 376 214 511 -21 b 742 139 639 -1 717 72 z "},"y":{"ha":882,"x_min":0,"x_max":0,"o":"m 367 500 b 268 32 342 425 240 82 b 294 7 274 24 285 11 b 508 -19 314 -3 469 -12 b 596 -14 533 -24 574 -31 b 617 42 613 -1 614 24 b 813 783 653 300 703 546 b 906 979 829 821 906 947 b 597 1086 906 1042 669 1142 b 540 1001 569 1065 554 1032 b 458 785 524 965 467 797 b 350 747 436 753 386 708 b 186 1060 258 846 386 1092 b 6 1004 139 1053 40 1038 b -18 943 -11 989 -19 965 b 4 833 -17 906 -6 869 b 367 500 56 638 99 406 z "},"z":{"ha":678,"x_min":0,"x_max":0,"o":"m 315 328 b 596 607 397 431 496 522 b 671 694 618 626 671 663 b 685 869 669 754 674 810 b 690 928 688 882 694 917 b 644 947 685 943 658 946 b 342 960 544 956 442 953 b 81 978 254 965 168 979 b 31 965 64 978 44 976 b 21 933 21 957 21 944 b 24 718 22 894 13 738 b 150 721 40 690 124 719 b 390 708 226 725 315 718 b 265 588 350 667 308 626 b 17 343 224 549 35 376 b -3 138 0 311 -11 175 b 36 82 1 117 17 92 b 81 75 49 75 67 75 b 492 35 221 79 354 61 b 560 26 514 31 536 25 b 585 33 568 26 578 28 b 604 156 600 46 600 132 b 625 281 608 185 638 257 b 315 328 613 304 357 322 z "},"{":{"ha":692,"x_min":0,"x_max":0,"o":"m 436 150 b 399 374 410 186 449 319 b 314 431 375 399 343 414 b 403 472 343 443 376 454 b 435 854 522 557 388 801 b 626 846 486 913 594 821 b 697 1013 647 863 688 982 b 708 1071 703 1029 713 1053 b 389 1175 693 1142 454 1175 b 125 872 232 1175 133 1014 b 136 601 119 789 165 674 b -21 471 106 528 7 514 b 104 349 -46 431 71 410 b 214 -106 182 210 43 6 b 579 -118 325 -178 461 -164 b 707 -43 618 -103 686 -82 b 672 156 729 -1 689 113 b 656 193 668 165 661 186 b 436 150 621 236 515 136 z "},"}":{"ha":690,"x_min":0,"x_max":0,"o":"m 378 431 b 268 310 328 394 272 385 b 251 149 267 286 269 157 b 31 182 190 124 54 256 b -6 -58 13 125 -51 -7 b 133 -126 13 -78 106 -115 b 490 -97 247 -168 388 -172 b 613 382 651 21 490 253 b 700 431 636 407 669 415 b 696 490 725 443 717 478 b 546 646 629 528 551 558 b 567 858 542 715 568 788 b 335 1172 564 990 479 1156 b -3 1096 263 1181 46 1147 b 76 840 -42 1054 47 850 b 254 857 108 829 197 906 b 289 472 310 810 167 557 b 378 431 315 454 347 443 z "},"~":{"ha":806,"x_min":0,"x_max":0,"o":"m 207 219 b 343 314 257 236 272 339 b 442 256 378 301 408 272 b 679 292 529 213 607 231 b 811 500 714 321 846 454 b 749 549 796 521 769 533 b 676 625 719 571 703 604 b 642 624 664 635 653 632 b 606 581 628 614 617 593 b 217 626 435 389 410 683 b 171 603 200 621 186 611 b -11 375 108 572 -28 449 b 171 228 -7 356 143 257 b 207 219 181 218 194 215 z "}," ":{"ha":347,"x_min":0,"x_max":0,"o":""},"¢":{"ha":690,"x_min":0,"x_max":0,"o":"m 590 129 b 708 206 618 140 696 181 b 629 426 728 243 667 401 b 606 435 622 431 614 436 b 418 364 582 433 513 358 b 288 540 328 369 278 456 b 531 753 310 735 519 688 b 499 879 533 772 506 856 b 363 961 468 976 467 968 b 340 1035 358 979 349 1021 b 174 983 310 1083 189 1025 b 196 903 163 956 182 926 b 382 89 -114 714 -112 99 b 421 -15 397 57 390 8 b 619 40 447 -36 611 6 b 590 129 624 60 599 111 z "},"£":{"ha":707,"x_min":0,"x_max":0,"o":"m 456 268 b 379 415 439 342 421 357 b 575 511 444 424 581 419 b 546 618 574 538 565 600 b 310 578 518 646 349 589 b 557 778 264 829 503 733 b 578 954 583 800 579 919 b 567 1015 576 974 578 997 b 222 972 533 1071 275 1010 b 67 529 60 858 7 721 b -19 489 42 526 -19 525 b 8 368 -19 465 -4 388 b 143 374 29 335 113 365 b 179 221 164 338 214 258 b 63 150 153 192 68 175 b 86 76 60 135 81 93 b 122 -25 93 54 110 -10 b 161 -44 132 -36 146 -44 b 246 -29 189 -44 218 -33 b 685 8 393 -4 535 19 b 710 13 693 8 701 8 b 729 138 736 28 729 110 b 707 258 729 175 739 231 b 456 268 668 292 511 265 z "},"¤":{"ha":924,"x_min":0,"x_max":0,"o":"m 793 294 b 786 694 861 415 847 574 b 824 746 800 710 808 731 b 924 832 854 776 890 804 b 782 983 976 878 808 989 b 678 843 746 976 694 876 b 228 847 564 953 347 949 b 108 958 210 881 156 986 b -8 863 79 940 11 889 b -4 811 -22 843 -22 828 b 122 685 43 769 86 738 b 108 275 68 558 47 403 b 0 178 82 238 36 207 b 142 25 -54 133 114 19 b 224 124 169 31 210 100 b 681 153 350 13 563 42 b 815 11 699 115 763 -21 b 932 106 846 31 913 78 b 828 244 971 160 854 207 b 793 294 815 261 806 279 z m 364 400 b 367 572 332 442 340 529 b 554 500 431 674 543 594 b 364 400 565 406 431 314 z "},"¥":{"ha":886,"x_min":0,"x_max":0,"o":"m 632 174 b 828 160 696 174 764 154 b 846 317 879 164 872 293 b 663 326 821 339 701 325 l 667 347 b 826 353 718 351 776 344 b 869 508 876 361 876 469 b 851 526 868 517 861 528 b 706 508 803 519 756 513 b 810 783 735 601 768 694 b 903 979 826 819 903 947 b 821 1054 903 1010 844 1042 b 676 1106 776 1079 728 1099 b 439 764 518 1129 508 849 b 347 747 418 738 375 718 b 183 1060 256 846 382 1092 b 3 1004 136 1051 38 1038 b -21 943 -12 989 -22 965 b 1 833 -19 906 -8 869 b 364 500 53 638 96 406 b 351 461 360 488 356 474 b 101 442 315 458 117 461 b 94 410 94 432 93 421 b 124 325 96 389 101 333 b 317 338 138 319 286 336 l 313 318 b 128 294 297 317 131 296 b 114 271 119 289 115 281 b 121 192 113 260 118 201 b 278 175 133 153 246 174 b 265 32 272 138 244 68 b 292 7 269 24 282 11 b 549 -25 299 3 532 -25 b 593 -14 563 -25 582 -24 b 632 174 615 4 626 139 z "},"­":{"ha":0,"x_min":0,"x_max":0,"o":""},"±":{"ha":731,"x_min":0,"x_max":0,"o":"m 497 542 b 735 539 540 542 714 519 b 740 617 749 553 742 599 b 517 786 724 856 736 786 b 508 1007 522 829 542 978 b 257 999 476 1036 276 1040 b 257 799 249 981 257 831 b 19 781 208 800 47 821 b 7 704 4 758 6 729 b 25 540 10 664 -3 572 b 253 538 42 521 217 538 b 243 303 251 496 225 324 b 321 294 257 286 301 293 b 497 542 553 306 497 283 z m 718 -26 b 724 50 732 -12 725 31 b 703 215 721 85 725 193 b 594 225 683 236 621 228 b 35 235 460 213 108 254 b 3 215 22 232 10 225 b -10 139 -12 194 -11 164 b 8 -25 -8 101 -18 4 b 189 -29 28 -46 158 -31 b 603 -31 326 -25 465 -19 b 685 -37 631 -33 657 -37 b 718 -26 696 -37 710 -35 z "},"×":{"ha":674,"x_min":0,"x_max":0,"o":"m 369 278 b 560 138 401 254 536 135 b 611 199 579 140 601 182 b 528 465 726 394 717 339 b 649 650 557 503 658 603 b 439 790 640 690 478 813 b 322 626 426 783 339 650 b 124 751 286 654 168 761 b -11 538 85 742 -33 576 b 168 418 -3 524 142 436 b 24 231 142 382 21 260 b 82 179 25 211 67 189 b 369 278 283 49 219 78 z "},"÷":{"ha":711,"x_min":0,"x_max":0,"o":"m 349 572 b 453 658 390 576 443 617 b 250 758 481 782 326 843 b 349 572 178 678 249 564 z m 711 321 b 703 547 739 336 722 531 b 671 560 694 554 682 558 b 594 556 647 563 618 557 b 315 558 501 549 408 551 b 1 550 263 563 35 585 b -15 490 -12 536 -17 510 b 3 328 -14 454 -18 353 b 206 324 21 306 171 322 b 603 322 335 328 474 335 b 711 321 629 319 689 308 z m 347 88 b 299 307 514 99 472 365 b 347 88 168 263 213 78 z "},"‘":{"ha":236,"x_min":0,"x_max":0,"o":"m 158 719 b 218 1008 213 769 268 947 b 74 1039 188 1046 117 1040 b 7 1003 44 1038 19 1032 b 60 722 -15 953 15 761 b 158 719 88 699 129 693 z "},"’":{"ha":236,"x_min":0,"x_max":0,"o":"m 158 719 b 218 1008 213 769 268 947 b 74 1039 188 1046 117 1040 b 7 1003 44 1038 19 1032 b 60 722 -15 953 15 761 b 158 719 88 699 129 693 z "},"“":{"ha":526,"x_min":0,"x_max":0,"o":"m 158 719 b 167 1036 222 778 296 1017 b 29 1029 132 1042 61 1047 b 60 722 -29 997 13 763 b 158 719 86 700 132 694 z m 447 719 b 456 1036 511 776 585 1017 b 318 1029 425 1040 344 1044 b 349 722 260 997 301 763 b 447 719 376 699 418 693 z "},"”":{"ha":526,"x_min":0,"x_max":0,"o":"m 158 719 b 167 1036 222 778 296 1017 b 29 1029 132 1042 61 1047 b 60 722 -29 997 13 763 b 158 719 86 700 132 694 z m 447 719 b 456 1036 511 776 585 1017 b 318 1029 425 1040 344 1044 b 349 722 260 997 301 763 b 447 719 376 699 418 693 z "},"€":{"ha":725,"x_min":0,"x_max":0,"o":"m 358 347 b 506 360 386 347 489 335 b 513 411 514 372 511 396 b 506 467 514 426 522 457 b 321 475 492 475 347 475 b 319 517 319 489 319 503 b 503 524 344 517 492 517 b 508 588 519 533 508 572 b 501 631 508 603 510 617 b 340 643 485 657 371 643 b 547 665 410 801 483 643 b 625 792 579 676 610 761 b 696 921 639 818 692 899 b 524 1008 706 972 563 1003 b 313 983 456 1018 375 1015 b 72 640 182 917 93 783 b 7 642 51 640 28 643 b 1 522 -44 638 -3 525 b 67 518 14 515 51 518 b 68 472 67 503 67 488 b -10 418 11 472 -10 486 b -15 367 -10 401 -17 383 b 83 350 -14 339 68 350 b 747 164 197 -175 733 33 b 703 244 750 185 715 228 b 640 324 690 263 656 314 b 358 347 589 358 436 224 z "},"™":{"ha":1203,"x_min":0,"x_max":0,"o":"m 367 874 b 554 871 399 872 536 857 b 563 1013 574 886 590 999 b 61 1033 546 1021 111 1033 b -6 892 -54 1033 -17 1004 b 167 890 -1 856 139 888 b 103 457 157 835 92 467 b 338 444 121 442 321 422 b 367 874 342 450 364 832 z m 865 742 b 817 992 858 776 831 982 b 599 976 793 1007 619 1000 b 590 950 592 968 590 960 b 586 482 588 903 576 514 b 740 465 592 464 721 464 b 750 478 750 467 751 469 b 743 722 743 558 740 642 b 796 526 751 690 781 542 b 844 519 807 515 831 519 b 929 529 863 521 918 515 b 1010 754 943 601 978 688 b 1004 426 1008 707 972 442 b 1175 415 1007 425 1156 417 b 1197 418 1182 415 1192 413 b 1199 460 1204 425 1200 450 b 1178 825 1179 581 1172 703 b 1188 956 1179 868 1188 913 b 992 999 1188 1015 993 1000 b 865 742 968 981 888 785 z "},"−":{"ha":607,"x_min":0,"x_max":0,"o":"m 600 329 b 581 597 614 353 599 581 b 340 599 567 611 379 594 b 21 601 286 603 53 635 b 3 540 7 586 4 560 b 21 326 1 508 1 347 b 51 315 29 318 40 315 b 507 322 201 315 356 347 b 600 329 529 318 586 306 z "},"|":{"ha":372,"x_min":0,"x_max":0,"o":"m 153 -222 b 376 -194 200 -222 344 -228 b 390 -149 389 -182 390 -165 b 375 -33 389 -110 381 -72 b 351 186 364 39 357 113 b 332 683 339 351 332 518 b 340 944 332 771 335 857 b 343 1058 343 982 347 1021 b 297 1101 340 1083 321 1097 b 58 1100 286 1103 67 1103 b 24 1067 42 1094 28 1083 b 19 515 8 1014 15 593 b 24 -201 26 399 -8 -131 b 153 -222 40 -239 119 -222 z "},"`":{"ha":221,"x_min":0,"x_max":0,"o":"m 215 832 b 144 1053 238 881 175 1013 b 8 989 119 1086 29 1013 b 6 939 -6 972 -8 956 b 81 851 24 918 69 872 b 108 801 89 835 97 817 b 215 832 135 764 200 800 z "},"\u0000":{"ha":0,"x_min":0,"x_max":0,"o":""},"\r":{"ha":0,"x_min":0,"x_max":0,"o":""}}}
